<svg height="384pt" viewBox="0 0 384 384.02635" width="384pt" xmlns="http://www.w3.org/2000/svg"><path d="m368.011719 16.011719v352l-80-16-80 16-80-16-112 16v-352l96 16 80-16 80 16zm0 0" fill="#4dd0e1"/><g fill="#012e52"><path d="m365.382812.226562-93.105468 15.523438-77.128906-15.425781c-2.070313-.4140628-4.199219-.4140628-6.269532 0l-77.128906 15.425781-93.105469-15.523438c-4.65625-.796874-9.382812.53125-12.976562 3.578126-3.582031 3.039062-5.6562502 7.503906-5.6562502 12.207031v352c0 4.640625 2.0078122 9.046875 5.5117192 12.089843 3.503906 3.039063 8.144531 4.421876 12.746093 3.75l109.289063-15.605468 77.3125 15.460937c2.070312.425781 4.199218.425781 6.269531 0l76.871094-15.375 76.867187 15.367188c1.039063.210937 2.085938.3125 3.132813.3125 3.664062 0 7.257812-1.253907 10.144531-3.625 3.703125-3.039063 5.855469-7.574219 5.855469-12.375v-352c0-4.703125-2.070313-9.167969-5.65625-12.207031-3.589844-3.046876-8.335938-4.375-12.972657-3.578126zm-13.371093 348.273438-60.863281-12.167969c-2.070313-.421875-4.199219-.421875-6.269532 0l-76.867187 15.359375-76.863281-15.367187c-1.03125-.207031-2.085938-.3125-3.136719-.3125-.75 0-1.511719.054687-2.261719.167969l-93.738281 13.382812v-314.664062l77.371093 12.898437c1.902344.3125 3.855469.28125 5.765626-.097656l76.863281-15.367188 76.867187 15.367188c1.902344.386719 3.855469.410156 5.765625.097656l77.367188-12.898437zm0 0"/><path d="m200.011719 112.011719h-128c-8.832031 0-16 7.167969-16 16s7.167969 16 16 16h128c8.832031 0 16-7.167969 16-16s-7.167969-16-16-16zm0 0"/><path d="m200.011719 176.011719h-128c-8.832031 0-16 7.167969-16 16s7.167969 16 16 16h128c8.832031 0 16-7.167969 16-16s-7.167969-16-16-16zm0 0"/><path d="m200.011719 240.011719h-128c-8.832031 0-16 7.167969-16 16s7.167969 16 16 16h128c8.832031 0 16-7.167969 16-16s-7.167969-16-16-16zm0 0"/><path d="m240.011719 128.011719c0 8.832031 7.167969 16 16 16h56c8.832031 0 16-7.167969 16-16s-7.167969-16-16-16h-56c-8.832031 0-16 7.167969-16 16zm0 0"/><path d="m312.011719 176.011719h-56c-8.832031 0-16 7.167969-16 16s7.167969 16 16 16h56c8.832031 0 16-7.167969 16-16s-7.167969-16-16-16zm0 0"/><path d="m312.011719 240.011719h-56c-8.832031 0-16 7.167969-16 16s7.167969 16 16 16h56c8.832031 0 16-7.167969 16-16s-7.167969-16-16-16zm0 0"/></g></svg>